Coordinates
version=1
nRows=11
nColumns=42
inDegrees=yes

Units are S.I. units (second, meters, Newtons, ...)
If the header above contains a line with 'inDegrees', this indicates whether rotational values are in degrees (yes) or radians (no).

endheader
time	pelvis_tilt	pelvis_list	pelvis_rotation	pelvis_tx	pelvis_ty	pelvis_tz	hip_flexion_r	hip_adduction_r	hip_rotation_r	knee_angle_r	knee_adduction_r	knee_angle_r_beta	ankle_angle_r	subtalar_angle_r	mtp_angle_r	hip_flexion_l	hip_adduction_l	hip_rotation_l	knee_angle_l	knee_adduction_l	knee_angle_l_beta	ankle_angle_l	subtalar_angle_l	mtp_angle_l	lumbar_extension	lumbar_bending	lumbar_rotation	arm_flex_r	arm_add_r	arm_rot_r	elbow_flex_r	pro_sup_r	wrist_flex_r	wrist_dev_r	arm_flex_l	arm_add_l	arm_rot_l	elbow_flex_l	pro_sup_l	wrist_flex_l	wrist_dev_l
      0.37000000	      0.39597837	     -4.46898644	     -2.20283457	     -0.55190819	      0.95635960	     -0.22577959	    -14.77205518	      6.56046730	      4.67401078	      5.19638221	      0.67001490	      0.09069398	     14.00182134	     -2.65571192	     -8.02587728	     24.46939337	     -6.93375103	    -10.43809104	      6.67070301	      1.86969584	      0.11642573	      1.33331752	      3.24238070	     -8.02587728	    -13.02136824	      4.57528610	      9.74557808	     -1.35948334	    -14.71749231	      3.93212360	     50.86294947	     90.00000001	      0.00000000	      0.00000000	     -6.05273703	    -12.93929882	      1.67341737	     39.02459298	     90.00000001	      0.00000000	      0.00000000
      0.38000000	      0.25121395	     -4.67668577	     -2.36071195	     -0.53741489	      0.95314931	     -0.22511818	    -15.55035229	      6.78124686	      4.70772619	      5.33241052	      0.60233447	      0.09306812	     14.44773806	     -2.62546420	     -8.01992443	     24.74730792	     -7.17527936	    -10.18242458	      5.50367595	      2.01315107	      0.09605727	      1.37275577	      4.49010955	     -8.01992443	    -12.85579064	      4.59793915	     10.03620320	     -1.13039539	    -14.66666299	      3.94430733	     51.23849444	     90.00000001	      0.00000000	      0.00000000	     -6.15524659	    -12.92431316	      1.36980502	     37.58397800	     90.00000001	      0.00000000	      0.00000000
      0.39000000	      0.20418693	     -4.79047636	     -2.53883154	     -0.52280846	      0.95025004	     -0.22467363	    -16.35199396	      6.84177449	      4.81825544	      5.64440057	      0.60811225	      0.09851337	     14.76249092	     -2.55320940	     -8.01375383	     24.93504725	     -7.24552604	     -9.94544292	      4.84860247	      1.97357498	      0.08462408	      1.50286857	      5.46978212	     -8.01375383	    -12.80298207	      4.52771849	     10.30399344	     -0.87676093	    -14.59752431	      3.87315269	     51.51103978	     90.00000001	      0.00000000	      0.00000000	     -6.18512318	    -12.84311982	      0.98739096	     35.98583408	     90.00000001	      0.00000000	      0.00000000
      0.40000000	      0.20150837	     -4.75618431	     -2.74635861	     -0.50811944	      0.94765348	     -0.22425929	    -17.10736665	      6.73286777	      4.95871574	      6.14241377	      0.58647710	      0.10720534	     14.96775508	     -2.48936881	     -8.00738831	     25.09892231	     -7.15962206	     -9.73907600	      4.74415548	      1.86855619	      0.08280113	      1.61531962	      6.07666736	     -8.00738831	    -12.80452676	      4.26904491	     10.51791769	     -0.62314106	    -14.43129995	      3.76507340	     51.66942007	     90.00000001	      0.00000000	      0.00000000	     -6.14946584	    -12.75633759	      0.55388056	     34.33931078	     90.00000001	      0.00000000	      0.00000000
      0.41000000	      0.23153973	     -4.59479576	     -2.99354892	     -0.49322682	      0.94538598	     -0.22396575	    -17.80439784	      6.43551453	      5.05219688	      6.80256494	      0.61425453	      0.11872716	     15.03993377	     -2.46473706	     -8.00044206	     25.22949203	     -6.91463511	     -9.54363702	      5.13400149	      1.66712851	      0.08960523	      1.63823261	      6.29460607	     -8.00044206	    -12.83121407	      3.85861493	     10.77201687	     -0.41014964	    -14.23551066	      3.60597154	     51.66155403	     90.00000001	      0.00000000	      0.00000000	     -6.07704813	    -12.65256348	      0.04088736	     32.67532812	     90.00000001	      0.00000000	      0.00000000
      0.42000000	      0.27595229	     -4.18600204	     -3.37925148	     -0.47792219	      0.94350541	     -0.22373820	    -18.39439486	      5.76721093	      5.14147230	      7.69411971	      0.74431768	      0.13428772	     15.01202438	     -2.41806651	     -7.98338081	     25.21982220	     -6.42223707	     -9.52743443	      5.76871732	      1.37235974	      0.10068311	      1.38127156	      6.15157789	     -7.98338081	    -12.82169387	      3.15438867	     11.06866424	     -0.30379763	    -13.94915141	      3.30744646	     51.60494362	     90.00000001	      0.00000000	      0.00000000	     -5.95128536	    -12.37010300	     -1.34863204	     30.86469175	     90.00000001	      0.00000000	      0.00000000
      0.43000000	      0.27413966	     -3.79711780	     -3.58139496	     -0.46265099	      0.94184978	     -0.22363361	    -18.76797154	      5.22925612	      5.10919637	      8.89420167	      0.77581894	      0.15523310	     14.80602904	     -2.49955303	     -7.96585627	     25.34820070	     -5.88738858	     -9.16485861	      6.86485363	      1.10731338	      0.11981430	      0.96477797	      5.40340660	     -7.96585627	    -12.76339283	      2.47448154	     11.13642337	     -0.14281348	    -13.62818019	      3.15563972	     51.31744775	     90.00000001	      0.00000000	      0.00000000	     -5.88008377	    -12.26600418	     -2.19235898	     29.23029651	     90.00000001	      0.00000000	      0.00000000
      0.44000000	      0.38730644	     -3.40358177	     -3.69422907	     -0.44711664	      0.94066277	     -0.22353768	    -19.16351883	      4.73458209	      5.06946904	     10.28161989	      0.75618480	      0.17944812	     14.24416745	     -2.72161884	     -7.95784323	     25.40522451	     -5.33875060	     -8.87978935	      8.35877734	      0.86209303	      0.14588819	      0.54086095	      4.61141883	     -7.95784323	    -12.81443113	      1.76787877	     11.05948511	      0.01500844	    -13.25832501	      3.03907476	     50.93746111	     90.00000001	      0.00000000	      0.00000000	     -5.92908105	    -12.31411513	     -2.51929060	     27.85829644	     90.00000001	      0.00000000	      0.00000000
      0.45000000	      0.29177238	     -2.81264029	     -3.83536153	     -0.43150870	      0.93969351	     -0.22375276	    -19.03638287	      3.97626541	      4.88510949	     12.18986404	      0.84318567	      0.21275326	     13.59661315	     -2.91313873	     -7.92457769	     25.45619432	     -4.50944115	     -7.95693183	      9.61252232	      0.62858633	      0.16777016	     -0.69163811	      2.51336291	     -7.92457769	    -12.62069555	      0.87320347	     10.93178605	      0.08585834	    -12.83117810	      2.80476403	     50.46904443	     90.00000001	      0.00000000	      0.00000000	     -5.80719671	    -12.06590377	     -4.35058776	     26.25667107	     90.00000001	      0.00000000	      0.00000000
      0.46000000	      0.46586527	     -2.24266801	     -3.86857482	     -0.41546245	      0.93942154	     -0.22392651	    -19.14280147	      3.29285373	      4.70586507	     14.17945916	      0.87253735	      0.24747825	     12.34865653	     -3.45860974	     -7.91645845	     25.39270870	     -3.71960224	     -7.77638028	     11.39874328	      0.34753205	      0.19894560	     -1.36995750	      1.69853156	     -7.91645845	    -12.68632963	     -0.02840345	     10.69759470	      0.09246087	    -12.38835280	      2.66114712	     49.93571448	     90.00000001	      0.00000000	      0.00000000	     -5.89866493	    -12.18961408	     -4.52938957	     25.05817625	     90.00000001	      0.00000000	      0.00000000
      0.47000000	      0.37908349	     -1.55769624	     -3.85833020	     -0.39951030	      0.93930282	     -0.22442642	    -18.64774543	      2.46527285	      4.45777732	     16.69403707	      1.04188565	      0.29136591	     10.87339587	     -4.24255145	     -7.88309725	     25.37919708	     -2.75323615	     -6.79852542	     12.81712848	      0.22031459	      0.22370109	     -2.77215709	     -0.48628556	     -7.88309725	    -12.46598386	     -1.01204889	     10.34050695	      0.04263471	    -11.89374042	      2.45297995	     49.31691808	     90.00000001	      0.00000000	      0.00000000	     -5.87232877	    -12.06429379	     -6.05710624	     23.76660768	     90.00000001	      0.00000000	      0.00000000
